{
  "accessors": [
    {
      "bufferView": 1,
      "componentType": 5126,
      "count": 5369,
      "max": [
        1.0969655513763428,
        0.75,
        0.949999988079071
      ],
      "min": [
        -1.0969655513763428,
        -4.0,
        -0.949999988079071
      ],
      "type": "VEC3"
    },
    {
      "bufferView": 1,
      "byteOffset": 64428,
      "componentType": 5126,
      "count": 5369,
      "max": [
        0.9999993443489075,
        1.0,
        1.0
      ],
      "min": [
        -0.9996030926704407,
        -1.0,
        -1.0
      ],
      "type": "VEC3"
    },
    {
      "bufferView": 2,
      "componentType": 5126,
      "count": 5369,
      "max": [
        1.0,
        0.8392156958580017,
        0.2235294133424759,
        1.0
      ],
      "min": [
        1.0,
        0.6784313917160034,
        0.16078431904315948,
        1.0
      ],
      "type": "VEC4"
    },
    {
      "bufferView": 0,
      "componentType": 5125,
      "count": 12936,
      "type": "SCALAR"
    }
  ],
  "asset": {
    "extras": {
      "author": "NAILIL HILMI (https://sketchfab.com/naililHilmi)",
      "license": "CC-BY-NC-ND-4.0 (http://creativecommons.org/licenses/by-nc-nd/4.0/)",
      "source": "https://sketchfab.com/3d-models/bolt-and-nut-13994b6f1dd24c5e926fd60f3f9f2f18",
      "title": "Bolt And Nut"
    },
    "generator": "Sketchfab-12.67.0",
    "version": "2.0"
  },
  "bufferViews": [
    {
      "buffer": 0,
      "byteLength": 51744,
      "name": "floatBufferViews",
      "target": 34963
    },
    {
      "buffer": 0,
      "byteLength": 128856,
      "byteOffset": 51744,
      "byteStride": 12,
      "name": "floatBufferViews",
      "target": 34962
    },
    {
      "buffer": 0,
      "byteLength": 85904,
      "byteOffset": 180600,
      "byteStride": 16,
      "name": "floatBufferViews",
      "target": 34962
    }
  ],
  "buffers": [
    {
      "byteLength": 266504,
      "uri": "scene.bin"
    }
  ],
  "materials": [
    {
      "doubleSided": true,
      "name": "Scene_-_Root",
      "pbrMetallicRoughness": {
        "metallicFactor": 0.0,
        "roughnessFactor": 0.6
      }
    }
  ],
  "meshes": [
    {
      "name": "Object_0",
      "primitives": [
        {
          "attributes": {
            "COLOR_0": 2,
            "NORMAL": 1,
            "POSITION": 0
          },
          "indices": 3,
          "material": 0,
          "mode": 4
        }
      ]
    }
  ],
  "nodes": [
    {
      "children": [
        1
      ],
      "matrix": [
        1.0,
        0.0,
        0.0,
        0.0,
        0.0,
        2.220446049250313e-16,
        -1.0,
        0.0,
        0.0,
        1.0,
        2.220446049250313e-16,
        0.0,
        0.0,
        0.0,
        0.0,
        1.0
      ],
      "name": "Sketchfab_model"
    },
    {
      "children": [
        2
      ],
      "name": "e1edf8462fd547cab4aa4513edd7a597.stl.cleaner.materialmerger.gles"
    },
    {
      "mesh": 0,
      "name": "Object_2"
    }
  ],
  "scene": 0,
  "scenes": [
    {
      "name": "Sketchfab_Scene",
      "nodes": [
        0
      ]
    }
  ]
}
